<svg width="178" height="27" viewBox="0 0 178 27" fill="none" xmlns="http://www.w3.org/2000/svg">
<g clip-path="url(#clip0_232_2018)">
<path d="M9.38248 11.1236C10.7874 10.0454 11.0565 8.02904 9.98275 6.62171L6.36041 1.87618C5.28406 0.463665 3.27366 0.196713 1.86354 1.27489C0.458586 2.35306 0.189498 4.36946 1.26585 5.77679L4.88819 10.5223C5.51951 11.3491 6.47426 11.7845 7.43935 11.7845C8.11983 11.7845 8.8029 11.5694 9.38506 11.1236H9.38248Z" fill="#161A1D"/>
<path d="M24.7305 1.79414C25.988 2.75569 26.2286 4.55956 25.2661 5.82175L16.7148 17.0286C16.4871 17.324 16.3655 17.6895 16.3655 18.0627V23.1399C16.3655 24.7287 15.0821 26.0116 13.4987 26.0116C11.9152 26.0116 10.6318 24.7261 10.6318 23.1399V18.0627C10.6318 16.435 11.1752 14.8307 12.161 13.54L20.7071 2.33064C21.667 1.07104 23.4704 0.830005 24.7279 1.79414H24.7305Z" fill="#ED1C24"/>
<path d="M45.9709 20.161C45.9709 23.3878 43.3498 26.0133 40.1285 26.0133H31.7066C30.4931 26.0133 29.5099 25.0284 29.5099 23.8128C29.5099 22.5973 30.4931 21.6124 31.7066 21.6124H40.1285C40.928 21.6124 41.5775 20.9619 41.5775 20.161C41.5775 19.3602 40.928 18.7096 40.1285 18.7096H33.6187C30.3974 18.7096 27.7764 16.0868 27.7764 12.86C27.7764 9.63327 30.3974 7.00781 33.6187 7.00781H41.3136C42.527 7.00781 43.5103 7.99268 43.5103 9.20822C43.5103 10.4238 42.527 11.4086 41.3136 11.4086H33.6187C32.8192 11.4086 32.1697 12.0592 32.1697 12.86C32.1697 13.6609 32.8192 14.3088 33.6187 14.3088H40.1285C40.2812 14.3088 40.4287 14.3244 40.5736 14.3529C43.5853 14.5861 45.9709 17.0846 45.9709 20.1584V20.161Z" fill="#161A1D"/>
<path d="M63.6037 9.20725C63.6037 10.4228 62.6205 11.4077 61.407 11.4077H57.1456V23.8119C57.1456 25.0274 56.1624 26.0123 54.9489 26.0123C53.7354 26.0123 52.7522 25.0274 52.7522 23.8119V11.4077H48.4882C47.2747 11.4077 46.2915 10.4228 46.2915 9.20725C46.2915 7.99171 47.2747 7.00684 48.4882 7.00684H61.407C62.6205 7.00684 63.6037 7.99171 63.6037 9.20725Z" fill="#161A1D"/>
<path d="M81.0401 9.79137C82.8331 11.5849 83.8189 13.9719 83.8189 16.5118C83.8189 19.0518 82.8305 21.4362 81.0401 23.2323C79.247 25.0258 76.8666 26.0158 74.331 26.0158C71.7953 26.0158 69.415 25.0258 67.6219 23.2323C66.4834 22.0919 65.6503 20.6742 65.2079 19.1321C64.8741 17.9632 65.5494 16.7451 66.7163 16.4108C67.8806 16.0738 69.0993 16.7529 69.4331 17.9192C69.6685 18.7459 70.1187 19.5053 70.7293 20.1196C71.6893 21.0837 72.9674 21.6124 74.3284 21.6124C75.6894 21.6124 76.9675 21.0811 77.93 20.117C78.89 19.1554 79.4204 17.8751 79.4204 16.5118C79.4204 15.1486 78.89 13.8682 77.93 12.9067C76.9675 11.9425 75.6894 11.4112 74.3284 11.4112C72.9674 11.4112 71.6893 11.9425 70.7293 12.9067C69.8703 13.7671 68.4809 13.7671 67.6219 12.9067C66.7655 12.0488 66.7655 10.6544 67.6219 9.79396C69.4124 7.99787 71.7953 7.00781 74.331 7.00781C76.8666 7.00781 79.247 7.99787 81.0401 9.79137Z" fill="#161A1D"/>
<path d="M105.105 22.5277C105.975 23.4063 105.967 24.824 105.09 25.6948C104.655 26.1276 104.086 26.3428 103.517 26.3428C102.947 26.3428 102.365 26.1225 101.928 25.6793L98.2538 21.9653L96.1684 19.8582L94.0855 21.9653L90.4114 25.6793C89.9742 26.1225 89.3998 26.3428 88.8228 26.3428C88.2458 26.3428 87.6869 26.1276 87.2496 25.6948C86.3725 24.824 86.3648 23.4063 87.2341 22.5277L90.9082 18.8137L93.0221 16.6755L87.2341 10.8233C86.3648 9.94464 86.3725 8.52694 87.2496 7.65611C88.1242 6.78528 89.5395 6.79305 90.4114 7.67166L96.1684 13.4928L101.925 7.67166C102.795 6.79305 104.21 6.78268 105.087 7.65611C105.964 8.52694 105.972 9.94464 105.103 10.8233L99.3146 16.6755L101.429 18.8137L105.103 22.5277H105.105Z" fill="#161A1D"/>
<path d="M111.889 7.67166L115.405 11.2276C116.275 12.1062 116.267 13.5239 115.39 14.3947C114.955 14.8249 114.386 15.0426 113.817 15.0426C113.247 15.0426 112.665 14.8223 112.228 14.3792L108.714 10.8232C107.845 9.94464 107.853 8.52694 108.73 7.65611C109.604 6.78527 111.02 6.79305 111.892 7.67166H111.889ZM112.228 18.9744C113.097 18.0958 114.513 18.088 115.39 18.9588C116.267 19.8296 116.275 21.2473 115.405 22.126L111.889 25.6819C111.452 26.1251 110.877 26.3454 110.3 26.3454C109.723 26.3454 109.164 26.1302 108.727 25.6974C107.85 24.8266 107.842 23.4089 108.712 22.5303L112.225 18.9744H112.228ZM123.064 18.9718L126.58 22.5277C127.449 23.4063 127.442 24.824 126.565 25.6948C126.13 26.1276 125.561 26.3428 124.991 26.3428C124.422 26.3428 123.84 26.1225 123.403 25.6793L119.887 22.1234C119.017 21.2448 119.025 19.8271 119.902 18.9562C120.779 18.0854 122.195 18.0932 123.064 18.9718ZM121.48 15.0426C120.911 15.0426 120.342 14.8275 119.907 14.3947C119.03 13.5239 119.022 12.1062 119.892 11.2276L123.408 7.67166C124.277 6.79305 125.693 6.78527 126.57 7.65611C127.447 8.52694 127.455 9.94464 126.585 10.8232L123.069 14.3792C122.632 14.8223 122.057 15.0426 121.48 15.0426Z" fill="#161A1D"/>
</g>
<defs>
<clipPath id="clip0_232_2018">
<rect width="177.148" height="26.0737" fill="white" transform="translate(0.222656 0.443359)"/>
</clipPath>
</defs>
</svg>
